<?xml version="1.0" standalone="no"?><!DOCTYPE svg PUBLIC "-//W3C//DTD SVG 1.1//EN" "http://www.w3.org/Graphics/SVG/1.1/DTD/svg11.dtd"><svg t="1717433549594" class="icon" viewBox="0 0 1024 1024" version="1.1" xmlns="http://www.w3.org/2000/svg" p-id="5969" xmlns:xlink="http://www.w3.org/1999/xlink" width="200" height="200"><path d="M460.8 568.32v92.16H295.2704c-38.144 0-75.3152 11.9296-106.3424 34.0992-25.3952 18.1248-40.448 47.36-40.448 78.5408v51.2H358.4v92.16H128a71.68 71.68 0 0 1-71.68-71.68v-71.68c0-60.928 29.44-118.1184 79.0528-153.5488A275.1488 275.1488 0 0 1 295.2704 568.32H460.8z m310.272-222.6688l205.9264 232.2944-145.408 0.0512v91.7504c0 81.8176-32.3584 144.6912-62.2592 173.5168-9.0112 8.704-35.6864 34.304-84.1216 51.0464-15.5648 5.376-43.52 13.312-77.9264 12.1344-53.9136-1.792-99.328-17.8688-136.3968-48.1792 33.4336 13.824 64.768 16.64 94.0544 8.448 125.7472-35.2768 141.2096-155.136 141.2096-196.9664l0.0512-91.7504H560.128l210.944-232.3456zM409.6 107.52a199.68 199.68 0 1 1 0 399.36 199.68 199.68 0 0 1 0-399.36z m0 92.16a107.52 107.52 0 1 0 0 215.04 107.52 107.52 0 0 0 0-215.04z" p-id="5970"></path></svg>